<?xml version="1.0" standalone="no"?>
<!DOCTYPE svg PUBLIC "-//W3C//DTD SVG 20010904//EN"
 "http://www.w3.org/TR/2001/REC-SVG-20010904/DTD/svg10.dtd">
<svg version="1.0" xmlns="http://www.w3.org/2000/svg"
 width="75" height="75" viewBox="0 0 1280.000000 640.000000"
 preserveAspectRatio="xMidYMid meet">
<metadata>
Created by potrace 1.15, written by Peter Selinger 2001-2017
</metadata>
<g transform="translate(0.000000,640.000000) scale(0.100000,-0.100000)"
fill="#000000" stroke="none">
<path d="M3750 4978 c-4 -51 -40 -787 -40 -820 l0 -47 -682 -4 c-739 -5 -792
-8 -895 -61 l-46 -23 33 -11 c43 -16 49 -15 26 3 -11 8 -15 15 -10 15 6 0 21
-11 34 -25 l23 -24 -34 9 c-42 12 -86 28 -117 43 -18 8 -25 8 -31 -2 -5 -7
-55 -77 -112 -156 l-104 -144 -85 -6 c-47 -3 -159 -15 -249 -26 -89 -11 -164
-19 -165 -17 -1 2 -6 17 -12 33 -14 45 -45 40 -63 -10 l-14 -40 -176 -38
c-227 -48 -412 -104 -581 -175 l-135 -57 -158 0 c-156 0 -157 0 -157 -22 0
-23 2 -23 116 -23 l116 0 -61 -45 c-146 -107 -160 -230 -41 -359 135 -146 497
-274 928 -327 l102 -13 0 -212 c0 -306 24 -631 66 -879 27 -162 44 -139 78
110 43 316 56 440 68 670 12 224 11 232 -19 273 l-16 23 99 -6 c76 -5 119 -14
189 -40 131 -49 257 -83 370 -100 98 -14 94 -11 97 -68 l3 -51 50 -19 c67 -25
162 -44 263 -53 79 -6 83 -6 89 15 5 18 13 21 59 21 46 0 54 -3 54 -19 0 -24
-9 -23 550 -61 489 -34 1260 -50 1449 -30 196 21 448 133 740 329 l86 58 270
7 c149 3 314 9 368 12 l97 7 0 -341 c0 -202 4 -361 11 -390 10 -51 49 -100 68
-88 7 5 2 15 -13 29 -27 24 -42 72 -26 82 6 4 10 133 10 356 l0 349 65 0 c35
0 176 4 312 10 826 32 825 32 870 20 43 -12 60 -40 25 -40 -35 0 -108 -58
-134 -107 -33 -63 -40 -103 -27 -163 31 -143 191 -221 324 -159 93 44 148 156
126 253 -20 87 -82 154 -159 175 -15 4 -27 13 -27 21 0 24 74 40 199 42 l121
3 3 -34 3 -34 72 6 c40 3 245 13 457 22 212 9 395 19 408 21 17 3 22 11 22 34
0 23 4 30 20 30 16 0 20 -7 20 -30 l0 -30 63 0 c34 0 231 9 437 20 206 11 394
20 418 20 41 0 42 1 42 35 0 19 1 35 3 35 1 0 94 5 207 10 113 5 300 14 415
20 116 5 314 14 440 20 127 5 276 13 333 16 87 6 102 5 102 -8 0 -9 8 -18 18
-20 11 -3 33 -45 65 -124 26 -66 47 -123 47 -128 0 -5 7 -17 15 -26 14 -16 14
-23 -1 -79 -15 -52 -16 -69 -5 -117 11 -46 22 -66 64 -109 54 -55 98 -75 167
-75 154 0 271 156 227 301 -44 142 -201 211 -333 144 -46 -23 -50 -24 -66 -7
-26 26 -106 211 -101 232 6 24 36 27 378 40 812 31 787 29 819 48 72 42 81 78
92 357 5 130 10 174 21 187 17 19 11 48 -8 48 -7 0 -20 -6 -28 -14 -13 -11
-48 -13 -178 -9 l-163 6 0 36 c0 60 -20 164 -39 206 -10 22 -24 76 -31 120
-42 287 -154 508 -310 612 -92 62 -152 78 -285 77 -95 0 -119 -4 -180 -28 -38
-15 -87 -38 -109 -52 l-39 -26 -224 18 c-124 11 -246 17 -271 15 l-47 -5 45
-6 c25 -4 126 -13 225 -19 99 -7 194 -14 211 -17 l32 -4 -70 -68 c-155 -149
-287 -407 -344 -671 l-18 -82 -60 6 c-399 37 -2409 149 -3761 210 -308 14
-672 30 -810 36 -145 6 -253 15 -256 21 -4 7 -8 7 -10 0 -3 -8 -110 -7 -364 4
-198 9 -361 17 -363 19 -2 2 7 18 19 37 18 27 55 51 173 111 171 86 192 99
182 115 -5 9 -15 8 -37 -3 -37 -20 -43 -15 -74 45 -23 45 -45 72 -45 53 0 -4
14 -30 30 -58 16 -27 30 -55 30 -60 0 -9 -199 -115 -215 -115 -3 0 -17 18 -31
40 -33 49 -45 45 -15 -5 11 -20 21 -40 21 -44 0 -4 -22 -18 -49 -31 -37 -17
-61 -21 -94 -18 -24 3 -52 1 -61 -4 -21 -12 -107 45 -105 70 1 15 2 15 6 0 7
-25 75 -66 97 -58 14 4 16 9 8 14 -7 4 -16 5 -20 2 -4 -2 -19 5 -32 16 l-25
20 30 -16 30 -17 -24 21 c-13 11 -31 18 -38 16 -8 -3 -12 -2 -9 3 9 14 -40 41
-86 46 -24 3 -81 12 -128 20 -87 14 -314 45 -336 45 -7 0 -15 -10 -17 -22 -4
-20 -4 -19 -6 5 l-1 27 -345 0 -345 0 0 43 c0 53 -27 614 -35 720 l-5 77 28 0
c15 0 34 -6 40 -12 9 -9 15 -10 20 -2 4 6 14 14 22 17 12 4 12 6 -2 6 -9 1
-18 6 -20 12 -3 9 -9 9 -25 0 -27 -14 -63 -14 -63 -1 0 8 -30 16 -30 8z m807
-894 c-3 -3 -12 -4 -19 -1 -8 3 -5 6 6 6 11 1 17 -2 13 -5z m-1887 -49 l0 -45
-200 0 -200 0 -32 30 -33 29 30 0 c24 0 26 -2 11 -8 -18 -7 -18 -8 5 -24 20
-15 52 -17 216 -17 l193 0 0 35 0 34 -122 4 -123 3 128 2 127 2 0 -45z m263
38 c-40 -2 -107 -2 -150 0 -43 1 -10 3 72 3 83 0 118 -2 78 -3z m347 -38 l0
-45 -110 0 -110 0 0 45 0 45 110 0 110 0 0 -45z m260 0 l0 -45 -110 0 -110 0
0 45 0 45 110 0 110 0 0 -45z m140 35 c0 -6 -11 -21 -25 -34 -14 -13 -25 -28
-25 -35 0 -6 -10 -11 -22 -10 -13 0 -17 3 -9 6 7 3 27 19 43 37 l30 31 -48 6
-49 6 53 1 c30 1 52 -2 52 -8z m100 1 c0 -5 -9 -7 -20 -4 -11 3 -20 1 -20 -5
0 -6 12 -13 28 -15 25 -4 25 -4 -5 -6 -27 -1 -33 3 -33 19 0 15 7 20 25 20 14
0 25 -4 25 -9z m243 2 c-29 -2 -78 -2 -110 0 -32 2 -8 3 52 3 61 0 87 -1 58
-3z m367 -38 l0 -45 -267 2 -268 3 263 2 262 3 0 35 0 35 -97 0 c-70 -1 -104
-5 -117 -15 -22 -17 -64 -19 -85 -6 -10 6 -1 8 26 4 29 -4 44 -1 54 10 11 13
37 16 122 17 l107 0 0 -45z m300 36 c34 -6 37 -9 15 -9 -16 -1 -48 3 -70 7
-53 11 -5 12 55 2z m-2297 -8 c-13 -2 -35 -2 -50 0 -16 2 -5 4 22 4 28 0 40
-2 28 -4z m1308 -16 c-10 -9 -11 -8 -5 6 3 10 9 15 12 12 3 -3 0 -11 -7 -18z
m-1398 6 c-7 -2 -19 -2 -25 0 -7 3 -2 5 12 5 14 0 19 -2 13 -5z m560 -56 l142
-3 -147 -2 -148 -2 2 38 c1 36 1 36 5 5 l4 -32 142 -4z m124 26 c-3 -10 -5 -4
-5 12 0 17 2 24 5 18 2 -7 2 -21 0 -30z m610 0 c-3 -10 -5 -4 -5 12 0 17 2 24
5 18 2 -7 2 -21 0 -30z m280 0 c-3 -10 -5 -4 -5 12 0 17 2 24 5 18 2 -7 2 -21
0 -30z m716 30 c-13 -2 -33 -2 -45 0 -13 2 -3 4 22 4 25 0 35 -2 23 -4z m200
0 c-7 -2 -21 -2 -30 0 -10 3 -4 5 12 5 17 0 24 -2 18 -5z m-48 -13 c40 -6 43
-7 15 -8 -19 0 -60 3 -90 8 -48 6 -50 7 -15 8 22 0 63 -3 90 -8z m108 3 c-7
-2 -21 -2 -30 0 -10 3 -4 5 12 5 17 0 24 -2 18 -5z m57 -14 c-20 -7 -16 -8 17
-5 24 2 46 0 49 -5 6 -11 -19 -11 -111 -2 l-70 8 50 6 c78 9 95 9 65 -2z
m-310 -33 c0 -8 -51 -13 -56 -5 -3 5 9 9 25 9 17 0 31 -2 31 -4z m110 -15 c15
-4 32 -21 42 -44 10 -20 29 -44 43 -53 34 -22 107 -22 142 1 23 15 26 16 14 2
-32 -39 -129 -39 -173 0 -11 10 -27 32 -34 50 -12 28 -20 33 -61 38 -73 10
-82 13 -38 13 22 0 51 -3 65 -7z m-100 -27 c0 -2 -9 0 -20 6 -11 6 -20 13 -20
16 0 2 9 0 20 -6 11 -6 20 -13 20 -16z m-2590 -68 l-52 -66 34 0 c30 0 37 6
57 40 24 44 23 43 45 34 21 -8 20 -38 -1 -55 -15 -13 -15 -12 -4 9 11 21 8 42
-7 42 -4 0 -17 -18 -30 -40 -19 -34 -28 -40 -56 -40 -20 0 -40 -8 -51 -20 -10
-11 -20 -18 -23 -16 -2 3 27 45 64 94 38 50 70 89 72 87 2 -2 -20 -33 -48 -69z
m120 54 c20 -6 21 -8 5 -8 -11 0 -31 4 -45 8 -20 6 -21 8 -5 8 11 0 31 -4 45
-8z m2628 -79 c56 -35 102 -65 102 -68 0 -5 11 -11 -132 77 -65 39 -118 74
-118 77 0 3 10 -1 23 -9 12 -8 68 -43 125 -77z m-1488 40 c0 -33 -3 -38 -19
-34 -15 4 -21 -3 -29 -34 l-10 -38 -1 48 c-1 26 -5 47 -11 47 -5 0 -10 8 -10
18 0 13 4 11 18 -8 21 -32 52 -29 52 5 0 20 -6 24 -37 28 l-38 4 43 1 42 2 0
-39z m260 -111 c0 -82 -3 -150 -7 -150 -5 0 -21 9 -38 20 -40 26 -104 26 -138
0 -14 -11 -28 -20 -31 -20 -3 0 -6 68 -6 150 l0 150 110 0 110 0 0 -150z m90
132 c0 -10 6 -24 13 -32 10 -12 9 -12 -5 -1 -10 7 -18 19 -18 26 0 8 -8 16
-17 18 -14 4 -12 5 5 6 15 1 22 -5 22 -17z m478 -134 l-2 -153 -3 147 -4 147
-122 4 -122 3 128 2 127 2 -2 -152z m282 119 c0 -27 -5 -35 -30 -44 -19 -7
-36 -24 -45 -45 -8 -18 -14 -26 -15 -17 0 22 36 66 60 74 13 4 20 15 20 31 0
24 0 24 -110 24 l-109 0 -4 -147 -3 -148 -2 153 -2 152 120 0 120 0 0 -33z
m677 13 c14 -11 20 -20 13 -20 -8 0 -23 -8 -34 -17 l-21 -18 19 23 c29 33 9
50 -44 35 -22 -5 -40 -7 -40 -2 0 7 26 15 63 18 11 0 30 -8 44 -19z m-2849
-112 c3 -124 1 -128 -43 -107 -17 8 -15 8 8 4 l27 -5 0 109 c0 106 -1 110 -22
114 -20 5 -20 5 2 4 25 -2 25 -2 28 -119z m2470 53 c56 -35 102 -65 102 -68 0
-5 -32 14 -135 78 -33 21 -61 36 -62 35 -2 -2 13 -38 32 -81 20 -43 34 -79 32
-82 -4 -3 -25 42 -74 155 -8 19 -10 32 -6 29 4 -2 54 -32 111 -66z m-2048 -81
l0 -140 -39 0 c-37 0 -45 6 -153 123 -62 67 -120 130 -127 140 -13 16 -4 17
153 17 l166 0 0 -140z m283 133 c-46 -2 -120 -2 -165 0 -46 1 -9 3 82 3 91 0
128 -2 83 -3z m693 -259 c8 3 12 2 9 -4 -3 -6 -13 -10 -21 -10 -12 0 -14 24
-12 143 l2 142 3 -138 c3 -120 6 -138 19 -133z m372 3 l107 -3 -112 -2 -113
-2 2 138 2 137 3 -132 4 -132 107 -4z m-1239 -7 c42 0 50 3 55 23 14 56 103
104 164 88 25 -7 27 -11 28 -64 l1 -57 -4 54 c-4 48 -6 54 -29 59 -65 12 -154
-42 -154 -93 0 -18 -7 -20 -62 -20 l-63 0 5 132 5 133 3 -127 3 -128 48 0z
m238 153 c-2 -21 -4 -6 -4 32 0 39 2 55 4 38 2 -18 2 -50 0 -70z m-507 -114
l40 -47 -115 -1 -115 -2 0 61 c0 51 3 60 18 59 10 0 12 -3 5 -6 -8 -3 -13 -24
-13 -54 l0 -49 101 0 101 0 -26 30 c-14 17 -58 66 -98 110 l-73 80 -6 -37 c-6
-35 -7 -35 -6 11 l1 49 73 -79 c40 -43 91 -100 113 -125z m1330 76 l0 -125
-32 20 c-36 22 -87 26 -121 9 -21 -10 -21 -10 -3 5 25 20 79 20 116 1 l30 -16
0 116 c0 63 2 115 5 115 3 0 5 -56 5 -125z m-42 88 c-16 -2 -40 -2 -55 0 -16
2 -3 4 27 4 30 0 43 -2 28 -4z m1258 -20 c-4 -11 -24 -30 -46 -42 -50 -28 -53
-21 -4 8 20 12 38 31 41 42 3 11 8 18 10 15 3 -2 2 -13 -1 -23z m-1746 -88 l0
-105 -42 2 -43 1 38 4 37 4 0 72 c0 50 -3 67 -10 57 -6 -9 -10 -10 -10 -3 0 6
5 15 10 18 6 3 10 17 10 31 0 13 2 24 5 24 3 0 5 -47 5 -105z m1990 -1 c0 -18
-11 -29 -51 -50 -28 -14 -49 -21 -45 -16 3 5 23 17 46 27 49 22 54 52 13 77
-27 16 -29 16 -50 -10 l-22 -27 17 36 17 36 38 -25 c25 -17 37 -32 37 -48z
m-2928 14 c-6 -6 -7 0 -4 19 5 21 7 23 10 9 2 -10 0 -22 -6 -28z m2530 -13
c15 -10 12 -14 -27 -33 -54 -26 -61 -21 -9 6 l37 19 -37 22 c-20 13 -36 25
-36 28 0 5 25 -10 72 -42z m57 19 c14 -12 -19 -1 -35 12 -18 14 -18 14 6 3 14
-6 27 -13 29 -15z m-607 -31 c6 -12 24 -27 39 -34 22 -9 29 -18 28 -38 -2 -23
-2 -24 -6 -3 -2 12 -17 29 -33 37 -32 17 -50 44 -49 72 0 13 2 14 6 3 2 -8 9
-25 15 -37z m-1082 33 c0 -3 -4 -8 -10 -11 -5 -3 -10 -1 -10 4 0 6 5 11 10 11
6 0 10 -2 10 -4z m-1104 -46 c10 0 15 -3 11 -6 -13 -13 -47 8 -46 29 l0 22 9
-22 c5 -13 17 -23 26 -23z m1111 8 c-3 -8 -6 -5 -6 6 -1 11 2 17 5 13 3 -3 4
-12 1 -19z m1887 9 c-8 -5 -28 -5 -45 -2 -17 4 -43 2 -60 -5 l-30 -13 57 -34
c50 -30 61 -33 83 -24 24 11 25 10 7 -4 -11 -8 -23 -15 -27 -15 -9 0 -129 71
-129 76 0 2 12 10 28 18 28 15 143 18 116 3z m-2195 -29 c-6 -12 -16 -33 -20
-47 l-9 -26 4 25 c2 14 7 33 11 43 6 15 4 16 -21 7 -59 -23 -73 -56 -26 -63
25 -4 25 -4 -5 -6 -26 -1 -33 3 -33 17 0 22 25 47 60 61 43 17 52 14 39 -11z
m1758 -11 c15 6 81 -15 88 -27 3 -5 -11 -2 -31 6 -20 9 -45 13 -56 11 -11 -3
-22 2 -28 13 -14 27 -12 39 3 14 7 -12 18 -19 24 -17z m-1470 -24 c-3 -10 -5
-2 -5 17 0 19 2 27 5 18 2 -10 2 -26 0 -35z m1771 -3 l47 -30 -81 0 -82 0 27
30 c14 16 29 29 34 30 4 0 28 -13 55 -30z m-675 -17 c-29 -2 -77 -2 -105 0
-29 2 -6 3 52 3 58 0 81 -1 53 -3z m437 -9 c0 -2 -16 -4 -35 -4 -19 0 -35 4
-35 8 0 4 16 6 35 4 19 -2 35 -6 35 -8z m-1307 -1 c-13 -2 -33 -2 -45 0 -13 2
-3 4 22 4 25 0 35 -2 23 -4z m280 0 c-13 -2 -33 -2 -45 0 -13 2 -3 4 22 4 25
0 35 -2 23 -4z m6107 -927 c0 -14 -3 -27 -7 -29 -5 -3 -95 -8 -200 -12 l-193
-7 0 26 c0 22 4 26 33 27 39 2 301 15 340 17 22 2 27 -2 27 -22z m-440 -25 l0
-28 -177 -7 c-98 -4 -190 -9 -205 -12 -26 -5 -28 -3 -28 25 0 30 1 31 48 32
54 2 318 15 345 17 13 2 17 -5 17 -27z m-450 -27 c0 -13 -4 -24 -10 -24 -5 0
-10 14 -10 31 0 17 4 28 10 24 6 -3 10 -17 10 -31z m-140 2 c0 -23 -4 -25 -72
-30 -40 -3 -133 -8 -205 -12 l-133 -6 0 26 c0 21 5 26 28 27 15 1 79 5 142 9
63 3 143 7 178 8 59 2 62 1 62 -22z m60 -1 c0 -14 -4 -25 -10 -25 -5 0 -10 11
-10 25 0 14 5 25 10 25 6 0 10 -11 10 -25z m-510 -19 c0 -29 -18 -32 -252 -42
l-158 -6 0 26 c0 21 5 26 28 27 15 1 81 5 147 9 236 13 235 13 235 -14z m-804
-96 c18 0 34 6 36 12 7 19 96 -31 129 -72 110 -137 12 -339 -164 -340 -102 0
-184 63 -207 161 -13 53 -7 95 21 151 29 57 121 119 144 97 5 -5 23 -9 41 -9z"/>
<path d="M3070 4035 l0 -35 100 0 100 0 0 35 0 35 -100 0 -100 0 0 -35z"/>
<path d="M3330 4035 l0 -35 100 0 100 0 0 35 0 35 -100 0 -100 0 0 -35z"/>
<path d="M3330 3789 l0 -140 26 20 c35 27 96 27 140 0 l34 -21 0 141 0 141
-100 0 -100 0 0 -141z"/>
<path d="M2341 3893 c8 -10 60 -69 118 -130 92 -101 107 -113 137 -113 l34 0
0 130 0 130 -151 0 c-143 0 -151 -1 -138 -17z"/>
<path d="M4922 3670 c-12 -19 -10 -20 40 -20 l53 0 -33 20 c-40 25 -44 25 -60
0z"/>
<path d="M3940 4951 l-25 -7 30 -6 c17 -4 46 -3 65 2 19 4 26 8 15 9 -11 1
-29 3 -40 5 -11 3 -31 1 -45 -3z"/>
<path d="M4088 4933 c17 -2 47 -2 65 0 17 2 3 4 -33 4 -36 0 -50 -2 -32 -4z"/>
<path d="M4218 4923 c17 -2 47 -2 65 0 17 2 3 4 -33 4 -36 0 -50 -2 -32 -4z"/>
<path d="M4390 4910 c41 -4 102 -7 135 -7 l60 0 -75 7 c-41 4 -102 7 -135 7
l-60 0 75 -7z"/>
<path d="M4618 4893 c17 -2 47 -2 65 0 17 2 3 4 -33 4 -36 0 -50 -2 -32 -4z"/>
<path d="M4748 4883 c17 -2 47 -2 65 0 17 2 3 4 -33 4 -36 0 -50 -2 -32 -4z"/>
<path d="M4888 4873 c17 -2 47 -2 65 0 17 2 3 4 -33 4 -36 0 -50 -2 -32 -4z"/>
<path d="M5018 4863 c17 -2 47 -2 65 0 17 2 3 4 -33 4 -36 0 -50 -2 -32 -4z"/>
<path d="M5158 4853 c17 -2 47 -2 65 0 17 2 3 4 -33 4 -36 0 -50 -2 -32 -4z"/>
<path d="M5288 4843 c17 -2 47 -2 65 0 17 2 3 4 -33 4 -36 0 -50 -2 -32 -4z"/>
<path d="M5428 4833 c17 -2 47 -2 65 0 17 2 3 4 -33 4 -36 0 -50 -2 -32 -4z"/>
<path d="M5558 4823 c18 -2 45 -2 60 0 15 2 0 4 -33 4 -33 0 -45 -2 -27 -4z"/>
<path d="M5730 4810 c41 -4 100 -7 130 -7 53 0 53 0 -15 7 -38 4 -97 7 -130 7
l-60 0 75 -7z"/>
<path d="M5958 4793 c17 -2 47 -2 65 0 17 2 3 4 -33 4 -36 0 -50 -2 -32 -4z"/>
<path d="M6065 4715 c3 -44 11 -84 17 -90 7 -7 8 16 3 72 l-7 82 54 3 53 3
-64 5 -63 5 7 -80z"/>
<path d="M6228 4773 c17 -2 47 -2 65 0 17 2 3 4 -33 4 -36 0 -50 -2 -32 -4z"/>
<path d="M6358 4763 c17 -2 47 -2 65 0 17 2 3 4 -33 4 -36 0 -50 -2 -32 -4z"/>
<path d="M6498 4753 c18 -2 45 -2 60 0 15 2 0 4 -33 4 -33 0 -45 -2 -27 -4z"/>
<path d="M6628 4743 c17 -2 47 -2 65 0 17 2 3 4 -33 4 -36 0 -50 -2 -32 -4z"/>
<path d="M6768 4733 c18 -2 45 -2 60 0 15 2 0 4 -33 4 -33 0 -45 -2 -27 -4z"/>
<path d="M6898 4723 c18 -2 45 -2 60 0 15 2 0 4 -33 4 -33 0 -45 -2 -27 -4z"/>
<path d="M7028 4713 c17 -2 47 -2 65 0 17 2 3 4 -33 4 -36 0 -50 -2 -32 -4z"/>
<path d="M7168 4703 c18 -2 45 -2 60 0 15 2 0 4 -33 4 -33 0 -45 -2 -27 -4z"/>
<path d="M7298 4693 c17 -2 47 -2 65 0 17 2 3 4 -33 4 -36 0 -50 -2 -32 -4z"/>
<path d="M7428 4683 c17 -2 47 -2 65 0 17 2 3 4 -33 4 -36 0 -50 -2 -32 -4z"/>
<path d="M7568 4673 c17 -2 47 -2 65 0 17 2 3 4 -33 4 -36 0 -50 -2 -32 -4z"/>
<path d="M7698 4663 c17 -2 47 -2 65 0 17 2 3 4 -33 4 -36 0 -50 -2 -32 -4z"/>
<path d="M7838 4653 c18 -2 45 -2 60 0 15 2 0 4 -33 4 -33 0 -45 -2 -27 -4z"/>
<path d="M7957 4643 c18 -2 50 -2 70 0 21 2 7 4 -32 4 -38 0 -55 -2 -38 -4z"/>
<path d="M8108 4633 c18 -2 45 -2 60 0 15 2 0 4 -33 4 -33 0 -45 -2 -27 -4z"/>
<path d="M8228 4623 c17 -2 47 -2 65 0 17 2 3 4 -33 4 -36 0 -50 -2 -32 -4z"/>
<path d="M8368 4613 c17 -2 47 -2 65 0 17 2 3 4 -33 4 -36 0 -50 -2 -32 -4z"/>
<path d="M6084 4495 c0 -66 1 -92 3 -57 2 34 2 88 0 120 -2 31 -3 3 -3 -63z"/>
<path d="M8498 4603 c17 -2 47 -2 65 0 17 2 3 4 -33 4 -36 0 -50 -2 -32 -4z"/>
<path d="M8638 4593 c17 -2 47 -2 65 0 17 2 3 4 -33 4 -36 0 -50 -2 -32 -4z"/>
<path d="M8768 4583 c17 -2 47 -2 65 0 17 2 3 4 -33 4 -36 0 -50 -2 -32 -4z"/>
<path d="M8908 4573 c17 -2 47 -2 65 0 17 2 3 4 -33 4 -36 0 -50 -2 -32 -4z"/>
<path d="M9038 4563 c18 -2 45 -2 60 0 15 2 0 4 -33 4 -33 0 -45 -2 -27 -4z"/>
<path d="M9163 4553 c15 -2 39 -2 55 0 15 2 2 4 -28 4 -30 0 -43 -2 -27 -4z"/>
<path d="M9308 4543 c18 -2 45 -2 60 0 15 2 0 4 -33 4 -33 0 -45 -2 -27 -4z"/>
<path d="M9448 4533 c18 -2 45 -2 60 0 15 2 0 4 -33 4 -33 0 -45 -2 -27 -4z"/>
<path d="M9568 4523 c17 -2 47 -2 65 0 17 2 3 4 -33 4 -36 0 -50 -2 -32 -4z"/>
<path d="M9708 4513 c17 -2 47 -2 65 0 17 2 3 4 -33 4 -36 0 -50 -2 -32 -4z"/>
<path d="M9838 4503 c17 -2 47 -2 65 0 17 2 3 4 -33 4 -36 0 -50 -2 -32 -4z"/>
<path d="M9978 4493 c18 -2 45 -2 60 0 15 2 0 4 -33 4 -33 0 -45 -2 -27 -4z"/>
<path d="M10108 4483 c17 -2 47 -2 65 0 17 2 3 4 -33 4 -36 0 -50 -2 -32 -4z"/>
<path d="M10248 4473 c18 -2 45 -2 60 0 15 2 0 4 -33 4 -33 0 -45 -2 -27 -4z"/>
<path d="M10378 4463 c18 -2 45 -2 60 0 15 2 0 4 -33 4 -33 0 -45 -2 -27 -4z"/>
<path d="M10508 4453 c17 -2 47 -2 65 0 17 2 3 4 -33 4 -36 0 -50 -2 -32 -4z"/>
<path d="M10846 4453 c-3 -4 -25 -10 -49 -14 l-42 -6 37 -2 c20 0 40 -5 43
-11 12 -20 35 -10 35 15 0 24 -10 32 -24 18z"/>
<path d="M10648 4443 c18 -2 45 -2 60 0 15 2 0 4 -33 4 -33 0 -45 -2 -27 -4z"/>
<path d="M6084 4095 c0 -66 1 -92 3 -57 2 34 2 88 0 120 -2 31 -3 3 -3 -63z"/>
<path d="M6073 3905 c0 -33 2 -45 4 -27 2 18 2 45 0 60 -2 15 -4 0 -4 -33z"/>
</g>
</svg>
